<svg xmlns="http://www.w3.org/2000/svg" width="760" height="240" viewBox="0 0 760 240" fill="none">
  <rect x="24" y="24" width="712" height="192" rx="36" fill="#FFFFFF"/>
  <rect x="24.5" y="24.5" width="711" height="191" rx="35.5" stroke="#07315F" stroke-opacity=".12"/>
  <path d="M112 158C162 88 238 88 288 158C338 88 414 88 464 158C514 88 590 88 640 158" stroke="#07315F" stroke-width="10" stroke-linecap="round" stroke-linejoin="round" opacity=".12"/>
  <text x="96" y="114" fill="#07315F" font-family="-apple-system,BlinkMacSystemFont,Segoe UI,Arial,sans-serif" font-size="50" font-weight="850" letter-spacing="0">Neptune</text>
  <circle cx="326" cy="103" r="7" fill="#EB4E4D"/>
  <text x="350" y="114" fill="#07315F" font-family="-apple-system,BlinkMacSystemFont,Segoe UI,Arial,sans-serif" font-size="50" font-weight="760" letter-spacing="0">Astro</text>
  <text x="98" y="152" fill="#5F6B7A" font-family="-apple-system,BlinkMacSystemFont,Segoe UI,Arial,sans-serif" font-size="18" font-weight="650" letter-spacing=".3">OpenWave gateway SDKs</text>
  <g transform="translate(568 78)">
    <path d="M0 58C22 20 52 20 74 58" stroke="#00A8AE" stroke-width="9" stroke-linecap="round"/>
    <path d="M18 58C40 20 70 20 92 58" stroke="#07315F" stroke-width="9" stroke-linecap="round" opacity=".8"/>
    <circle cx="74" cy="36" r="6" fill="#EB4E4D"/>
  </g>
</svg>
